<?xml version="1.0" encoding="UTF-8"?>
<svg width="1440px" height="436px" viewBox="0 0 1440 436" version="1.1" xmlns="http://www.w3.org/2000/svg" xmlns:xlink="http://www.w3.org/1999/xlink">
    <!-- Generator: Sketch 42 (36781) - http://www.bohemiancoding.com/sketch -->
    <title>Artboard</title>
    <desc>Created with Sketch.</desc>
    <defs></defs>
    <g id="Page-1" stroke="none" stroke-width="1" fill="none" fill-rule="evenodd">
        <g id="Artboard" fill="#FFFFFF">
            <path d="M1329.10437,120.73265 C1318.27695,119.148359 1307.00456,118.31154 1295.42679,118.31154 C1235.97515,118.31154 1184.57569,140.376814 1160.12979,172.409928 C1148.13901,169.780879 1135.31453,168.35747 1121.98631,168.35747 C1118.03729,168.35747 1114.1325,168.482428 1110.28051,168.726679 C1091.26832,107.810486 1021.04453,62.6000327 937.323214,62.6000327 C861.886887,62.6000327 797.408857,99.3052528 771.478197,151.132033 C733.327059,122.737524 679.914903,105.09186 620.794345,105.09186 C574.643408,105.09186 531.971023,115.844671 497.321296,134.06953 C475.371985,116.189374 444.752939,105.09186 410.880357,105.09186 C361.815401,105.09186 319.577005,128.376627 300.62646,161.832104 C290.030579,157.527094 278.320039,155.13779 266.006548,155.13779 C252.724471,155.13779 240.143935,157.917765 228.90714,162.883337 C207.147124,117.472435 152.48124,85.2623406 88.485119,85.2623406 C5.37448273,85.2623406 -62,139.587112 -62,206.600114 C-62,237.872432 -47.327726,266.381608 -23.2309524,287.896307 L-23.2309524,435.583851 L1445.9119,435.583851 L1445.9119,302.993391 C1459.4174,306.329811 1473.61018,308.108369 1488.25179,308.108369 C1578.68743,308.108369 1652,240.255249 1652,156.554184 C1652,72.8531196 1578.68743,5 1488.25179,5 C1411.14963,5 1346.49363,54.3200676 1329.10437,120.73265 Z" id="Combined-Shape"></path>
        </g>
    </g>
</svg>