<?xml version="1.0" encoding="UTF-8"?>
<svg width="29px" height="34px" viewBox="0 0 29 34" version="1.1" xmlns="http://www.w3.org/2000/svg" xmlns:xlink="http://www.w3.org/1999/xlink">
    <!-- Generator: Sketch 42 (36781) - http://www.bohemiancoding.com/sketch -->
    <title>Group 4</title>
    <desc>Created with Sketch.</desc>
    <defs></defs>
    <g id="Page-1" stroke="none" stroke-width="1" fill="none" fill-rule="evenodd">
        <g id="Desktop-HD-Copy-13" transform="translate(-642.000000, -472.000000)" fill-rule="nonzero" fill="#5F609E">
            <g id="Page-1" transform="translate(-70.000000, 172.000000)">
                <g id="Group-8" transform="translate(263.000000, 0.000000)">
                    <g id="Group-6">
                        <g id="Group-4" transform="translate(448.897999, 299.956113)">
                            <ellipse id="Oval-Copy-3" fill-opacity="0.4" cx="14.1820256" cy="19.1447458" rx="14.0183645" ry="14.0876432"></ellipse>
                            <g id="noun_817115_cc" transform="translate(1.360193, 0.511964)">
                                <g id="3--PC-Coding--(Outline)">
                                    <g id="Group">
                                        <g transform="translate(6.034704, 4.009049)" id="Shape">
                                            <path d="M4.72718445,0.300678684 C4.32487088,-0.100226228 3.72140052,-0.100226228 3.31908695,0.300678684 L0.301735178,3.30746553 C-0.100578393,3.70837044 -7.14775461e-14,4.30972781 0.301735178,4.71063272 L0.301735178,4.71063272 L3.31908695,7.71741957 C3.72140052,8.11832448 4.32487088,8.11832448 4.72718445,7.71741957 C5.12949802,7.31651465 5.12949802,6.71515728 4.72718445,6.31425237 L2.41388142,4.00904913 L4.72718445,1.70384588 C5.12949802,1.30294097 5.12949802,0.701583597 4.72718445,0.300678684 Z"></path>
                                            <path d="M11.7676719,3.30746553 L11.7676719,3.30746553 L8.75032015,0.300678684 C8.34800658,-0.100226228 7.74453622,-0.100226228 7.34222265,0.300678684 C6.93990908,0.701583597 6.93990908,1.30294097 7.34222265,1.70384588 L9.65552568,4.00904913 L7.34222265,6.31425237 C6.93990908,6.71515728 6.93990908,7.31651465 7.34222265,7.71741957 C7.74453622,8.11832448 8.34800658,8.11832448 8.75032015,7.71741957 L11.7676719,4.71063272 C12.1699855,4.30972781 12.1699855,3.70837044 11.7676719,3.30746553 Z"></path>
                                        </g>
                                        <path d="M2.01156785,14.0316719 L2.01156785,2.80633439 C2.01156785,2.40542948 2.41388142,2.00452456 2.81619499,2.00452456 L21.3226192,2.00452456 C21.7249328,2.00452456 22.1272464,2.40542948 22.1272464,2.80633439 L22.1272464,14.0316719 L2.01156785,14.0316719 Z M23.1330303,16.0361965 C23.7365006,16.0361965 24.1388142,15.6352916 24.1388142,15.0339342 L24.1388142,2.80633439 C24.1388142,1.20271474 22.9318735,0 21.3226192,0 L2.81619499,0 C1.20694071,0 0,1.20271474 0,2.80633439 L0,15.0339342 C0,15.6352916 0.40231357,16.0361965 1.00578393,16.0361965 L23.1330303,16.0361965 Z" id="Shape"></path>
                                        <path d="M22.1272464,16.0361965 L22.1272464,17.2389112 C22.1272464,17.6398162 21.7249328,18.0407211 21.3226192,18.0407211 L2.81619499,18.0407211 C2.41388142,18.0407211 2.01156785,17.6398162 2.01156785,17.2389112 L2.01156785,16.0361965 L22.1272464,16.0361965 Z M21.3226192,20.0452456 C22.8312951,20.0452456 24.1388142,18.8425309 24.1388142,17.2389112 L24.1388142,15.0339342 C24.1388142,14.4325769 23.7365006,14.0316719 23.1330303,14.0316719 L1.00578393,14.0316719 C0.40231357,14.0316719 0,14.4325769 0,15.0339342 L0,17.2389112 C0,18.8425309 1.20694071,20.0452456 2.81619499,20.0452456 L21.3226192,20.0452456 Z" id="Shape"></path>
                                        <path d="M9.3537905,22.0497702 L9.85668247,20.0452456 L14.2821317,20.0452456 L14.7850237,22.0497702 L9.3537905,22.0497702 Z M16.0925428,24.0542948 C16.7965915,24.0542948 17.1989051,23.4529374 17.0983267,22.85158 L16.0925428,18.8425309 C15.9919644,18.441626 15.5896508,18.0407211 15.0867589,18.0407211 L9.05205533,18.0407211 C8.54916336,18.0407211 8.14684979,18.3413997 8.0462714,18.8425309 L7.04048748,22.85158 C6.93990908,23.4529374 7.34222265,24.0542948 8.0462714,24.0542948 L16.0925428,24.0542948 Z" id="Shape"></path>
                                        <path d="M7.04048748,24.0542948 L17.0983267,24.0542948 C17.7017971,24.0542948 18.1041107,23.6533898 18.1041107,23.0520325 C18.1041107,22.4506751 17.7017971,22.0497702 17.0983267,22.0497702 L7.04048748,22.0497702 C6.43701712,22.0497702 6.03470355,22.4506751 6.03470355,23.0520325 C6.03470355,23.6533898 6.43701712,24.0542948 7.04048748,24.0542948 Z" id="Shape"></path>
                                    </g>
                                </g>
                            </g>
                        </g>
                    </g>
                </g>
            </g>
        </g>
    </g>
</svg>