<?xml version="1.0" encoding="UTF-8"?>
<svg width="34px" height="36px" viewBox="0 0 34 36" version="1.1" xmlns="http://www.w3.org/2000/svg" xmlns:xlink="http://www.w3.org/1999/xlink">
    <!-- Generator: Sketch 42 (36781) - http://www.bohemiancoding.com/sketch -->
    <title>Group 3</title>
    <desc>Created with Sketch.</desc>
    <defs></defs>
    <g id="Page-1" stroke="none" stroke-width="1" fill="none" fill-rule="evenodd">
        <g id="Desktop-HD-Copy-13" transform="translate(-392.000000, -217.000000)" fill-rule="nonzero" fill="#6AD7E5">
            <g id="Page-1" transform="translate(-70.000000, 172.000000)">
                <g id="Group-8" transform="translate(263.000000, 0.000000)">
                    <g id="Group-6">
                        <g id="Group-3" transform="translate(219.035463, 65.059321) rotate(-28.000000) translate(-219.035463, -65.059321) translate(204.535463, 49.059321)">
                            <ellipse id="Oval-Copy-2" fill-opacity="0.4" cx="14.5982165" cy="19.2491643" rx="12.2156575" ry="12.3082922"></ellipse>
                            <path d="M16.9022174,6.70488908 L11.4844059,6.70488908 C11.1119314,6.70488908 10.8071795,6.40451005 10.8071795,6.03440017 L10.8071795,0.670488908 C10.8071795,0.300379031 11.1119314,1.05515596e-12 11.4844059,1.05515596e-12 L16.9022174,1.05515596e-12 C17.2746919,1.05515596e-12 17.5794438,0.300379031 17.5794438,0.670488908 L17.5794438,6.03440017 C17.5794438,6.40451005 17.2746919,6.70488908 16.9022174,6.70488908 Z M12.1616323,5.36391126 L16.224991,5.36391126 L16.224991,1.34097782 L12.1616323,1.34097782 L12.1616323,5.36391126 Z" id="Shape" stroke="#6AD7E5"></path>
                            <polygon id="Shape" stroke="#6AD7E5" points="2.68046223 2.68195563 10.8071795 2.68195563 10.8071795 4.02293345 2.68046223 4.02293345 2.68046223 2.68195563"></polygon>
                            <polygon id="Shape" stroke="#6AD7E5" points="17.5794438 2.68195563 25.7061611 2.68195563 25.7061611 4.02293345 17.5794438 4.02293345"></polygon>
                            <path d="M26.411831,5.36391126 C25.290344,5.36391126 24.3801517,4.46143319 24.3801517,3.35244454 C24.3801517,2.24345589 25.290344,1.34097782 26.411831,1.34097782 C27.5306091,1.34097782 28.4435103,2.24345589 28.4435103,3.35244454 C28.4435103,4.46143319 27.533318,5.36391126 26.411831,5.36391126 Z M26.411831,2.68195563 C26.0393565,2.68195563 25.7346046,2.98367564 25.7346046,3.35244454 C25.7346046,3.72121344 26.0393565,4.02293345 26.411831,4.02293345 C26.7815966,4.02293345 27.0890575,3.72121344 27.0890575,3.35244454 C27.0890575,2.98367564 26.7843056,2.68195563 26.411831,2.68195563 Z" id="Shape" stroke="#6AD7E5"></path>
                            <path d="M2.03167931,5.36391126 C0.91019233,5.36391126 7.67386155e-13,4.46143319 7.67386155e-13,3.35244454 C7.67386155e-13,2.24345589 0.91019233,1.34097782 2.03167931,1.34097782 C3.15045738,1.34097782 4.06335862,2.24345589 4.06335862,3.35244454 C4.06335862,4.46143319 3.15316629,5.36391126 2.03167931,5.36391126 Z M2.03167931,2.68195563 C1.65920477,2.68195563 1.35445287,2.98367564 1.35445287,3.35244454 C1.35445287,3.72121344 1.65920477,4.02293345 2.03167931,4.02293345 C2.40144494,4.02293345 2.70890575,3.72121344 2.70890575,3.35244454 C2.70890575,2.98367564 2.40415385,2.68195563 2.03167931,2.68195563 Z" id="Shape" stroke="#6AD7E5"></path>
                            <path d="M27.5130012,15.6733487 C27.1405267,15.6733487 26.8357748,15.3716287 26.8357748,15.0028598 C26.8357748,9.55983085 22.9132792,4.93345738 17.5130756,3.99611389 C17.1460189,3.93308793 16.8967996,3.58577468 16.9631678,3.21968773 C17.0268271,2.85360079 17.3816937,2.60954283 17.7460415,2.67525074 C23.7990914,3.72523637 28.1902276,8.9094566 28.1902276,15.0015188 C28.1902276,15.3729697 27.8881846,15.6733487 27.5130012,15.6733487 Z" id="Shape" stroke="#6AD7E5"></path>
                            <path d="M0.87226765,15.6733487 C0.498438657,15.6733487 0.195041214,15.3716287 0.195041214,15.0028598 C0.195041214,8.91079758 4.58753188,3.72255442 10.6405818,2.67659172 C11.0022207,2.60954283 11.3584418,2.85225981 11.4234555,3.21834676 C11.4884693,3.58309272 11.2406044,3.93040598 10.8735477,3.99477291 C5.47063515,4.9321164 1.54949409,9.56117182 1.54949409,15.0028598 C1.54949409,15.3729697 1.24609664,15.6733487 0.87226765,15.6733487 L0.87226765,15.6733487 Z" id="Shape" stroke="#6AD7E5"></path>
                            <path d="M18.5952835,24.5573267 C18.5424598,24.5573267 18.4869273,24.5492809 18.4286858,24.5358711 C18.0656924,24.4446846 17.846271,24.0799386 17.9410828,23.7218976 L19.5582995,17.3844364 L14.1946661,9.26883866 L8.82967828,17.3844364 L10.4482495,23.7218976 C10.5376433,24.0839616 10.3209309,24.4446846 9.95929197,24.5358711 C9.58681743,24.6270576 9.22653297,24.4071372 9.13713908,24.0517781 L7.44407299,17.4300296 C7.39666714,17.2463157 7.42917401,17.0545559 7.53346688,16.8990024 L13.6285048,7.67977995 C13.8777241,7.3016242 14.5116081,7.3016242 14.7608274,7.67977995 L20.8558653,16.8990024 C20.9615127,17.0545559 20.995374,17.2503386 20.9452592,17.4300296 L19.2521931,24.0517781 C19.1736349,24.3548391 18.8986809,24.5573267 18.5952835,24.5573267 L18.5952835,24.5573267 Z" id="Shape" stroke="#6AD7E5"></path>
                            <path d="M14.1933117,20.7851561 C13.8208371,20.7851561 13.5160852,20.4834361 13.5160852,20.1146672 L13.5160852,9.38684471 C13.5160852,9.01673483 13.8208371,8.7163558 14.1933117,8.7163558 C14.5657862,8.7163558 14.8705381,9.01673483 14.8705381,9.38684471 L14.8705381,20.1146672 C14.8705381,20.4834361 14.5657862,20.7851561 14.1933117,20.7851561 Z" id="Shape" stroke="#6AD7E5"></path>
                            <path d="M14.1933117,23.3839711 C13.0731791,23.3839711 12.1616323,22.4801521 12.1616323,21.3725044 C12.1616323,20.2621748 13.0731791,19.3610377 14.1933117,19.3610377 C15.3147986,19.3610377 16.224991,20.2621748 16.224991,21.3725044 C16.224991,22.4801521 15.3147986,23.3839711 14.1933117,23.3839711 Z M14.1933117,20.7020155 C13.8208371,20.7020155 13.5160852,21.0050765 13.5160852,21.3725044 C13.5160852,21.7412733 13.8208371,22.0429933 14.1933117,22.0429933 C14.5657862,22.0429933 14.8705381,21.7412733 14.8705381,21.3725044 C14.8705381,21.0037355 14.5657862,20.7020155 14.1933117,20.7020155 Z" id="Shape" stroke="#6AD7E5"></path>
                            <path d="M20.2883496,25.4785785 L8.09827373,25.4785785 C7.72579919,25.4785785 7.42104729,25.1768585 7.42104729,24.8080896 C7.42104729,24.4393207 7.72579919,24.1376007 8.09827373,24.1376007 L20.2883496,24.1376007 C20.6608241,24.1376007 20.965576,24.4393207 20.965576,24.8080896 C20.965576,25.1768585 20.6608241,25.4785785 20.2883496,25.4785785 Z" id="Shape" stroke="#6AD7E5"></path>
                        </g>
                    </g>
                </g>
            </g>
        </g>
    </g>
</svg>