<?xml version="1.0" encoding="UTF-8" standalone="no"?>
<svg width="382px" height="382px" viewBox="0 0 382 382" version="1.1" xmlns="http://www.w3.org/2000/svg" xmlns:xlink="http://www.w3.org/1999/xlink">
    <!-- Generator: Sketch 41.2 (35397) - http://www.bohemiancoding.com/sketch -->
    <title>github-logo</title>
    <desc>Created with Sketch.</desc>
    <defs></defs>
    <g id="Page-1" stroke="none" stroke-width="1" fill="none" fill-rule="evenodd">
        <g id="github-logo" fill="#D1C5B8">
            <path d="M356.010077,97.5684988 C338.947991,67.6531795 315.80436,43.9691795 286.573093,26.5111562 C257.337476,9.05224242 225.420897,0.325011655 190.800733,0.325011655 C156.18492,0.325011655 124.2579,9.05491375 95.0283736,26.5111562 C65.7944966,43.968289 42.6517358,67.6531795 25.5896492,97.5684988 C8.53017312,127.482928 0,160.149716 0,195.567972 C0,238.113333 12.1300228,276.371212 36.3961595,310.351403 C60.6596856,344.334266 92.0045695,367.849082 130.4282,380.898522 C134.90082,381.748005 138.211777,381.150517 140.364551,379.121198 C142.518196,377.089207 143.593713,374.544322 143.593713,371.497226 C143.593713,370.988783 143.551075,366.414578 143.46841,357.769268 C143.383134,349.123958 143.343107,341.581907 143.343107,335.146676 L137.62877,336.158219 C133.985412,336.841189 129.38923,337.130583 123.840223,337.048662 C118.293827,336.969413 112.535982,336.374597 106.574519,335.268667 C100.610446,334.172531 95.06318,331.630317 89.928369,327.647366 C84.7961686,323.664415 81.1528109,318.450872 78.9991663,312.014751 L76.514861,306.164541 C74.8589476,302.269744 72.2519499,297.943082 68.6903872,293.200583 C65.1288246,288.453632 61.5272346,285.235571 57.883877,283.541058 L56.1444282,282.266834 C54.9853759,281.420023 53.9098588,280.398685 52.9152665,279.213506 C51.9215444,278.028326 51.1775581,276.842256 50.680697,275.654406 C50.1829658,274.465664 50.5954214,273.490629 51.9224146,272.725739 C53.2494077,271.960848 55.6475672,271.589534 59.1273349,271.589534 L64.094205,272.349082 C67.4069021,273.02849 71.5044829,275.057809 76.3921686,278.449506 C81.2772437,281.838531 85.2930296,286.244443 88.4403964,291.665459 C92.2516948,298.616256 96.8435262,303.912611 102.228943,307.557193 C107.610009,311.201776 113.035453,313.020951 118.500055,313.020951 C123.964656,313.020951 128.684401,312.5971 132.66103,311.753851 C136.633308,310.906149 140.3602,309.631925 143.839968,307.938303 C145.330551,296.578033 149.388975,287.850802 156.011759,281.750378 C146.572269,280.735273 138.085604,279.206382 130.547412,277.173501 C123.013572,275.137949 115.228255,271.834406 107.196683,267.253967 C99.1607608,262.679762 92.4944692,256.999627 87.1960683,250.223357 C81.8967973,243.443524 77.5477403,234.542657 74.1549886,223.528769 C70.7604966,212.510429 69.0628155,199.800247 69.0628155,185.394662 C69.0628155,164.88331 75.6064146,147.428848 88.6910023,133.021483 C82.5615991,117.600793 83.1402551,100.313734 90.4287107,81.1620886 C95.2319909,79.634979 102.355116,80.780979 111.794606,84.592965 C121.235836,88.4067319 128.148383,91.6737669 132.539207,94.3824942 C136.930032,97.090331 140.448087,99.3850023 143.098592,101.246028 C158.504765,96.841007 174.403449,94.6380513 190.798993,94.6380513 C207.194538,94.6380513 223.096702,96.841007 238.503745,101.246028 L247.944105,95.1473846 C254.399818,91.0780606 262.023285,87.3488858 270.796232,83.9589697 C279.574401,80.5708345 286.286811,79.6376503 290.926501,81.1647599 C298.376806,100.317296 299.040738,117.603464 292.909595,133.024154 C305.993312,147.43152 312.539522,164.890434 312.539522,185.397333 C312.539522,199.802918 310.835749,212.55317 307.446478,223.656103 C304.052856,234.760816 299.666383,243.652779 294.285317,250.35069 C288.898159,257.047711 282.18923,262.683324 274.157658,267.256639 C266.124346,271.833515 258.336419,275.137058 250.802579,277.172611 C243.265257,279.208163 234.778592,280.737944 225.339103,281.75483 C233.94846,289.378802 238.254009,301.413138 238.254009,317.852494 L238.254009,371.490103 C238.254009,374.537198 239.289499,377.081193 241.362219,379.114075 C243.432328,381.143394 246.701517,381.740881 251.174137,380.890508 C289.602989,367.842848 320.947872,344.327142 345.210528,310.34428 C369.470574,276.364089 381.604948,238.10621 381.604948,195.560848 C381.596246,160.147044 373.061722,127.482928 356.010077,97.5684988 Z" id="Shape"></path>
        </g>
    </g>
</svg>