<?xml version="1.0" encoding="UTF-8"?>
<svg width="382px" height="382px" viewBox="0 0 382 382" version="1.1" xmlns="http://www.w3.org/2000/svg" xmlns:xlink="http://www.w3.org/1999/xlink">
    <!-- Generator: Sketch 42 (36781) - http://www.bohemiancoding.com/sketch -->
    <title>instagram</title>
    <desc>Created with Sketch.</desc>
    <defs></defs>
    <g id="Page-1" stroke="none" stroke-width="1" fill="none" fill-rule="evenodd">
        <g id="instagram" fill-rule="nonzero" fill="#5F609E">
            <g id="Page-1">
                <g id="instagram">
                    <g id="Layer_1">
                        <g id="XMLID_13_">
                            <path d="M267.73079,0 L113.60071,0 C50.9610145,0 0,50.9610145 0,113.60071 L0,267.73079 C0,330.370486 50.9610145,381.3315 113.60071,381.3315 L267.73079,381.3315 C330.370486,381.3315 381.3315,330.370486 381.3315,267.73079 L381.3315,113.60071 C381.330808,50.9610145 330.369793,0 267.73079,0 Z M342.969565,267.73079 C342.969565,309.28367 309.28367,342.969565 267.73079,342.969565 L113.60071,342.969565 C72.0478297,342.969565 38.3619348,309.28367 38.3619348,267.73079 L38.3619348,113.60071 C38.3619348,72.0471377 72.0478297,38.3619348 113.60071,38.3619348 L267.73079,38.3619348 C309.28367,38.3619348 342.969565,72.0471377 342.969565,113.60071 L342.969565,267.73079 L342.969565,267.73079 Z" id="XMLID_17_"></path>
                            <path d="M190.66575,92.0398551 C136.283344,92.0398551 92.0398551,136.283344 92.0398551,190.665058 C92.0398551,245.046772 136.283344,289.290953 190.66575,289.290953 C245.048156,289.290953 289.291645,245.047464 289.291645,190.665058 C289.291645,136.282652 245.048156,92.0398551 190.66575,92.0398551 Z M190.66575,250.92971 C157.382616,250.92971 130.40179,223.948884 130.40179,190.66575 C130.40179,157.382616 157.383308,130.40179 190.66575,130.40179 C223.948884,130.40179 250.92971,157.382616 250.92971,190.66575 C250.92971,223.948192 223.948192,250.92971 190.66575,250.92971 Z" id="XMLID_81_"></path>
                            <circle id="XMLID_83_" cx="289.479877" cy="92.7817101" r="23.6320978"></circle>
                        </g>
                    </g>
                </g>
            </g>
        </g>
    </g>
</svg>