<?xml version="1.0" encoding="UTF-8"?>
<svg width="29px" height="35px" viewBox="0 0 29 35" version="1.1" xmlns="http://www.w3.org/2000/svg" xmlns:xlink="http://www.w3.org/1999/xlink">
    <!-- Generator: Sketch 42 (36781) - http://www.bohemiancoding.com/sketch -->
    <title>Group 2</title>
    <desc>Created with Sketch.</desc>
    <defs></defs>
    <g id="Page-1" stroke="none" stroke-width="1" fill="none" fill-rule="evenodd">
        <g id="Desktop-HD-Copy-13" transform="translate(-301.000000, -385.000000)" fill-rule="nonzero" fill="#B8D2EE">
            <g id="Page-1" transform="translate(-70.000000, 172.000000)">
                <g id="Group-8" transform="translate(263.000000, 0.000000)">
                    <g id="Group-6">
                        <g id="Group-2" transform="translate(107.986238, 213.587073)">
                            <ellipse id="Oval-Copy" fill-opacity="0.4" cx="14.2294392" cy="19.9094943" rx="14.2294392" ry="14.2210674"></ellipse>
                            <path d="M16.9863753,6.30982004 C18.0693699,6.55796802 18.9324333,7.4731906 19.1823551,8.47238722 C19.2689947,8.93896203 19.6798186,9.29231344 20.1715696,9.29231344 C20.7228257,9.29231344 21.1736371,8.84508095 21.1736371,8.29830622 C21.1736371,7.58216814 20.5676362,6.49380808 19.7388478,5.67812775 C18.9271969,4.88273327 17.9594043,4.32180562 17.1615586,4.32180562 C16.6093504,4.32180562 16.158539,4.78366279 16.158539,5.33090928 C16.1590151,5.81776996 16.5150942,6.22537424 16.9863753,6.30982004 Z M3.19878303,19.3432501 C2.42045504,20.1136411 2.42045504,21.3657033 3.19878303,22.1365661 C3.97520685,22.9074288 5.23957329,22.9074288 6.01123669,22.1365661 L11.7746721,16.4296343 C13.1180615,17.2604111 14.7032799,17.7425541 16.4094129,17.7425541 C21.2593246,17.7425541 25.1866676,13.8500276 25.1866676,9.04369369 C25.1866676,4.23735982 21.2593246,0.345305008 16.4094129,0.345305008 C11.5590253,0.345305008 7.63168223,4.23735982 7.63168223,9.04369369 C7.63168223,10.7288355 8.11867277,12.3040562 8.95650595,13.6367901 L3.19878303,19.3432501 Z M10.1404214,9.04369369 C10.1404214,5.61396781 12.9481146,2.83008715 16.409889,2.83008715 C19.8707113,2.83008715 22.6793566,5.61396781 22.6793566,9.04369369 C22.6793566,12.4738913 19.8707113,15.2573002 16.409889,15.2573002 C12.9485906,15.2573002 10.1404214,12.4738913 10.1404214,9.04369369 Z" id="Shape"></path>
                        </g>
                    </g>
                </g>
            </g>
        </g>
    </g>
</svg>