<?xml version="1.0" encoding="UTF-8"?>
<svg width="63px" height="63px" viewBox="0 0 63 63" version="1.1" xmlns="http://www.w3.org/2000/svg" xmlns:xlink="http://www.w3.org/1999/xlink">
    <!-- Generator: Sketch 42 (36781) - http://www.bohemiancoding.com/sketch -->
    <title>Group 5</title>
    <desc>Created with Sketch.</desc>
    <defs></defs>
    <g id="Page-1" stroke="none" stroke-width="1" fill="none" fill-rule="evenodd">
        <g id="Desktop-HD-Copy-13" transform="translate(-403.000000, -371.000000)" fill-rule="nonzero">
            <g id="Page-1" transform="translate(-70.000000, 172.000000)">
                <g id="Group-8" transform="translate(263.000000, 0.000000)">
                    <g id="Group-5" transform="translate(210.000000, 199.000000)">
                        <g id="noun_882927_cc" transform="translate(16.625000, 26.250000)">
                            <g id="Group">
                                <g>
                                    <ellipse id="Oval" fill="#FFCF49" cx="13.629" cy="22.48625" rx="13.629" ry="13.73625"></ellipse>
                                    <path d="M10.2518833,0.309876006 C11.8659928,-0.086017913 13.5764831,-0.0863704455 15.192384,0.300710163 C15.3571988,0.33208555 15.511623,0.428679435 15.588656,0.578505718 C15.7140585,0.798838488 15.6459828,1.10025372 15.4388895,1.24866987 C15.2941392,1.36077518 15.0949284,1.3794594 14.9225895,1.32552194 C12.8971598,0.835854393 10.7047655,1.04984158 8.81835345,1.9262372 C8.24830946,2.20438529 7.68292327,2.50262772 7.18310468,2.89358619 C4.87104064,4.55612913 3.42353735,7.30482449 3.33969681,10.1173282 C3.33468071,10.4797316 3.31927412,10.843545 3.35510341,11.2052433 C3.38305025,11.4551888 3.41243027,11.7051343 3.44181029,11.9550798 C4.00038891,12.1620163 4.57939023,12.3234762 5.17308155,12.3946877 C5.56684544,12.4345239 5.96168421,12.4708347 6.35759786,12.4831734 C7.05698559,12.4454524 7.76318088,12.4024434 8.43999615,12.2099607 C9.82300672,11.8429745 11.1024706,11.1058292 12.1010329,10.0954712 C12.9792088,9.20920468 13.6484999,8.11917441 14.0171833,6.93466544 C14.0634031,6.7679176 14.188089,6.62232171 14.3557701,6.56485892 C14.5216597,6.50069802 14.699373,6.55710321 14.8674124,6.58072288 C15.062682,6.60716281 15.2257053,6.75240617 15.2891231,6.93325531 C15.5628589,7.5875555 15.933692,8.19990433 16.380125,8.75373278 C16.6893317,9.16196534 17.0619563,9.51837562 17.4460463,9.85751182 C18.6305626,10.8629343 20.1178364,11.5376814 21.6756939,11.7153577 C21.8182945,10.240362 21.598661,8.73645869 21.0544141,7.35594169 C20.2504048,5.32077197 18.7108202,3.56903833 16.7559742,2.52906766 C16.4962119,2.4077965 16.380125,2.0686603 16.5162763,1.81871481 C16.639529,1.55960347 16.9931641,1.44714563 17.2468355,1.58886366 C19.59867,2.83083542 21.4162899,4.9982048 22.2432299,7.49201921 C22.7301499,8.92083315 22.8910234,10.4539967 22.7312248,11.951907 C22.7201177,12.0724731 22.6552667,12.1817581 22.6566999,12.3044394 C22.6559833,12.5198367 22.5004842,12.7197226 22.2937492,12.7856462 C22.1851864,12.8237197 22.0687412,12.8099709 21.9569539,12.8036253 C21.9573122,12.9802441 21.9551624,13.1568628 21.9587453,13.3338341 C22.2002347,13.4039881 22.4399327,13.4818977 22.6570582,13.6102195 C22.8899486,13.6895393 23.0429396,13.8876626 23.2364178,14.0269129 C23.467875,14.202474 23.647738,14.4330302 23.7853225,14.6854435 C23.9128748,14.8617097 23.9565865,15.0767545 24.0486678,15.2702948 C24.3342272,16.115315 24.1937764,17.0872469 23.680701,17.8208669 C23.5130199,18.0471927 23.1558019,18.0947846 22.9329437,17.9199285 C22.7082941,17.761994 22.6524004,17.4299084 22.8068246,17.2056978 C23.1020579,16.7653848 23.1998719,16.1971025 23.0518969,15.6887508 C22.9641152,15.4328122 22.8645098,15.1726433 22.6860799,14.9635915 C22.4689544,14.7573601 22.2306896,14.5687552 21.9565956,14.440786 C21.9569539,15.5255282 21.9569539,16.6106231 21.9565956,17.6957179 C21.9594619,17.8314429 21.9110924,17.9678729 21.8168613,18.0683447 C21.6584959,18.2439058 21.3765194,18.2922028 21.1676346,18.1783348 C20.9906379,18.088439 20.8759842,17.8952512 20.8835083,17.6995957 C20.8835083,16.0215414 20.8845832,14.343487 20.8831501,12.6654326 C19.6076274,12.4070264 18.3894315,11.8782277 17.3378419,11.1231032 C16.2507812,10.3440066 15.3400007,9.32800811 14.699373,8.16465109 C14.1429441,9.41508362 13.2934317,10.5364893 12.2339596,11.4171153 C11.1891775,12.2861077 9.94410972,12.9213712 8.6191426,13.256277 C7.9638249,13.4343059 7.28414328,13.4889484 6.60840288,13.527727 C6.33466711,13.5576922 6.06057305,13.5252592 5.78719557,13.5104529 C5.29454284,13.4723794 4.79866548,13.435716 4.31747812,13.3179702 C4.31604495,14.8719331 4.31998617,16.4266011 4.31568666,17.9805641 C4.32106105,18.2488413 4.08781238,18.4934988 3.81550978,18.5044273 C3.59157672,18.5238166 3.36656878,18.3863289 3.28308654,18.181155 C3.22790943,18.0619991 3.24582408,17.9283893 3.24367432,17.8018301 C3.2447492,16.805221 3.24403261,15.8082592 3.24403261,14.8116501 C2.6650313,15.0235221 2.19530931,15.5195352 2.05055898,16.1142574 C1.86926278,16.729779 2.07958071,17.4168647 2.51633975,17.8804449 C2.68617058,18.0443725 2.72701597,18.3193478 2.6041215,18.5213488 C2.44933897,18.8100729 2.00863872,18.8759965 1.77467346,18.6450877 C1.4600923,18.3345066 1.22935167,17.9491887 1.06883646,17.5420137 C0.814090208,16.799933 0.865684385,15.9556178 1.23042655,15.2572511 C1.40491519,14.9114167 1.65285387,14.6018933 1.9488038,14.348775 C2.10860243,14.2486558 2.24045422,14.1087004 2.41422627,14.0300857 C2.67398862,13.8971809 2.94557463,13.7522901 3.24439091,13.7406565 C3.24367432,13.4970566 3.2447492,13.2534567 3.24367432,13.0098568 C3.02224931,12.9178459 2.76141208,12.8730742 2.60268833,12.6795339 C2.48767631,12.5681337 2.41960066,12.4190125 2.40347748,12.261783 C2.31605402,11.6808096 2.24941154,11.0945481 2.25514423,10.506524 C2.26517643,10.3418914 2.26625131,10.1772587 2.26553472,10.0126261 C2.36514014,7.63620498 3.3103168,5.29856243 4.91475237,3.51756859 C6.30743685,1.94774168 8.1956404,0.810472058 10.2518833,0.309876006 Z" id="Shape" fill="#443C77"></path>
                                    <path d="M9.2748186,16.3398782 C9.44751577,16.3085028 9.62845368,16.3419933 9.79326841,16.3959308 C10.0885018,16.5404691 10.2912955,16.8471723 10.3185258,17.169387 C10.3181675,17.3724456 10.2762472,17.5910157 10.1293471,17.7436623 C9.98925463,17.9044171 9.79362671,18.0204002 9.58008414,18.0545959 C9.22107466,18.1180517 8.83161029,17.9379077 8.65783823,17.6206285 C8.40165882,17.1979421 8.61376821,16.5700818 9.088148,16.4005137 C9.1486995,16.3758365 9.21068417,16.354332 9.2748186,16.3398782 Z" id="Shape" fill="#443C77"></path>
                                    <path d="M15.3994773,16.447048 C15.6814538,16.3613826 15.9971099,16.4505733 16.219968,16.631775 C16.3794084,16.784069 16.482955,16.9931207 16.5152014,17.2088706 C16.5442231,17.6364924 16.2300002,18.0944321 15.7792678,18.1420239 C15.4689861,18.2164083 15.1594211,18.0619991 14.9347714,17.8614081 C14.8301499,17.7560009 14.7939623,17.6082898 14.7602828,17.4697446 C14.7058223,17.1993522 14.7660155,16.8870085 14.9781249,16.6945258 C15.0956449,16.5803053 15.2350209,16.4812437 15.3994773,16.447048 Z" id="Shape" fill="#443C77"></path>
                                    <path d="M20.8885244,19.1784693 C20.8938988,18.925351 21.1110243,18.6997302 21.3668455,18.6785783 C21.5843292,18.6517858 21.8086206,18.7727045 21.9046431,18.9658922 C21.9694941,19.0843431 21.9630448,19.2228884 21.9608951,19.3533254 C21.9354563,20.6143339 21.6653034,21.8760474 21.1178319,23.0196626 C20.1912865,25.0333279 18.4962028,26.6937556 16.438885,27.5846051 C16.1572668,27.7111642 15.8670495,27.817629 15.5761157,27.920921 C15.5771906,29.2249385 15.573966,26.7342969 15.5761157,28.0383143 C15.5904474,28.219516 15.526313,27.8077581 15.3761883,27.920921 C15.2597431,27.8144562 14.6108747,28.5389104 14.6180405,28.3845012 C14.6194737,27.1615662 14.5026702,29.4230617 14.5030285,28.2001267 C13.884615,28.3154048 13.2543778,28.3619391 12.6262903,28.3845012 C12.1325627,28.365817 11.6377602,28.3326789 11.1479738,28.2639351 C11.1476156,29.5365772 11.3023981,27.1115066 11.3027564,28.3845012 C11.3066976,28.5470186 11.2787508,28.2840294 11.1479738,28.3845012 C10.9971325,28.5036571 10.2518833,28.1158715 10.0745283,28.0383143 C9.87675066,27.9565268 10.0659293,28.4112936 10.0745283,28.2001267 C10.0745283,26.8527478 10.0748866,29.3853407 10.0745283,28.0383143 C8.81763686,27.6794363 7.63419544,27.0692027 6.63240851,26.2393413 C5.64387841,25.4302794 4.83127013,24.4160436 4.26230102,23.2819468 C3.68473287,22.126698 3.33073949,20.8544085 3.30243435,19.5641398 C3.28953581,19.2764733 3.56004694,19.0198297 3.85098077,19.0360462 C4.12005874,19.0353411 4.36298132,19.2644872 4.37265523,19.5295916 C4.4142172,20.1475809 4.49913262,20.7648652 4.66932174,21.3624077 C4.98139485,22.5243546 5.58189374,23.6059241 6.37622909,24.5165153 C7.63455373,25.9403938 9.40272916,26.93101 11.3027564,27.2172663 C11.7649542,27.2782544 12.2318098,27.3142127 12.6983072,27.3219684 C13.3421595,27.2891829 13.9921028,27.2507569 14.6180405,27.0889445 C15.6105118,26.8453446 16.55748,26.420543 17.3937356,25.8409797 C18.3378373,25.1831542 19.14113,24.3289681 19.731955,23.3499855 C20.4847284,22.094265 20.8881662,20.6365434 20.8885244,19.1784693 Z" id="Shape" fill="#443C77"></path>
                                    <path d="M10.9200996,19.8274815 C11.1504819,19.7654358 11.4152603,19.8754259 11.5256146,20.0848302 C11.6001395,20.241002 11.6291612,20.4165632 11.7262586,20.5632167 C11.8452118,20.7888374 12.0551715,20.9608733 12.2930779,21.0549994 C12.5875947,21.1632269 12.9268981,21.0662804 13.1493979,20.8568762 C13.3414429,20.6834302 13.4593213,20.446881 13.5327713,20.2039861 C13.6115958,19.9434647 13.9186528,19.7823573 14.1830729,19.8613246 C14.4503594,19.9272482 14.6327305,20.21844 14.5650132,20.4828393 C14.4005567,21.1071742 13.9809958,21.6849749 13.38193,21.9673533 C12.9168659,22.1950893 12.3568541,22.2190615 11.8731587,22.0332769 C11.5266894,21.8866234 11.2081671,21.6620603 10.978143,21.3655805 C10.7706914,21.0895476 10.6119677,20.7764988 10.5288437,20.442298 C10.4672173,20.1768411 10.6520965,19.8905848 10.9200996,19.8274815 Z" id="Shape" fill="#443C77"></path>
                                </g>
                            </g>
                        </g>
                        <g id="noun_882927_cc-copy" transform="translate(0.000000, 8.750000)">
                            <g id="Group">
                                <g>
                                    <ellipse id="Oval" fill="#FFCF49" cx="10.738" cy="18.6975" rx="10.738" ry="10.8225"></ellipse>
                                    <path d="M9.40396357,0.197193822 C10.4202547,-0.0547386719 11.4972301,-0.0549630108 12.5146492,0.191361013 C12.6184214,0.211327168 12.7156515,0.272796004 12.7641538,0.368140003 C12.8431109,0.508351765 12.8002484,0.700161455 12.6698564,0.794608098 C12.5787173,0.865947843 12.4532882,0.8778378 12.3447786,0.843513961 C11.069508,0.531907341 9.68911163,0.668081004 8.50137069,1.22578731 C8.1424541,1.40279064 7.78647021,1.59258128 7.47176962,1.84137303 C6.01602559,2.8993549 5.10463463,4.64852468 5.05184614,6.43829978 C5.04868786,6.66892008 5.03898741,6.90043775 5.06154659,7.13060937 C5.07914275,7.2896656 5.09764128,7.44872182 5.11613981,7.60777804 C5.46783746,7.73946493 5.83239385,7.84221211 6.2061995,7.88752855 C6.45412491,7.91287884 6.7027271,7.93598574 6.95200606,7.9438376 C7.39236129,7.91983334 7.83700278,7.89246401 8.26314573,7.76997501 C9.13393016,7.5364383 9.93951856,7.06734583 10.568243,6.42439077 C11.1211685,5.86040298 11.542574,5.16674735 11.774708,4.41296892 C11.8038094,4.30685665 11.8823153,4.21420472 11.9878923,4.17763749 C12.0923413,4.13680783 12.2042349,4.17270204 12.3100374,4.18773274 C12.432985,4.20455815 12.5356292,4.29698575 12.575559,4.41207156 C12.7479111,4.82844441 12.9813987,5.21812094 13.2624861,5.57055722 C13.4571718,5.83034158 13.6917873,6.05714812 13.9336218,6.27296207 C14.6794283,6.91277638 15.61586,7.34216088 16.5967332,7.45522765 C16.6865188,6.51659403 16.548231,5.55956462 16.205557,4.68105381 C15.699329,3.3859458 14.7299609,2.27120621 13.4991319,1.60940669 C13.3355778,1.53223414 13.2624861,1.31642019 13.348211,1.15736397 C13.4258146,0.992474937 13.6484737,0.920910854 13.8081927,1.01109506 C15.2889774,1.80144072 16.4334047,3.18067578 16.9540707,4.76764859 C17.26065,5.67689383 17.3619407,6.65254335 17.2613267,7.60575899 C17.2543334,7.68248287 17.2135013,7.7520279 17.2144036,7.83009781 C17.2139524,7.96716883 17.1160456,8.09436894 16.9858791,8.1363203 C16.9175248,8.16054889 16.8442074,8.15179968 16.7738228,8.14776158 C16.7740484,8.26015533 16.7726948,8.37254908 16.7749508,8.48516717 C16.9269996,8.52981059 17.0779206,8.57938947 17.2146292,8.6610488 C17.3612639,8.71152504 17.4575916,8.83760345 17.5794112,8.92621729 C17.7251435,9.03793802 17.8383906,9.18465561 17.9250179,9.3452822 C18.0053286,9.45745161 18.0328508,9.59429829 18.0908279,9.7174603 C18.2706245,10.2552005 18.1821925,10.8737026 17.8591451,11.3405517 C17.7535681,11.4845772 17.528653,11.5148629 17.3883349,11.4035909 C17.2468888,11.3030871 17.2116965,11.0917599 17.3089266,10.9490804 C17.4948143,10.6688812 17.5564008,10.3072471 17.4632314,9.98375048 C17.4079614,9.8208805 17.3452469,9.65531845 17.2329022,9.52228553 C17.0961935,9.39104732 16.946175,9.27102605 16.7735972,9.18959106 C16.7738228,9.87988161 16.7738228,10.5703965 16.7735972,11.2609114 C16.7754019,11.3472818 16.744947,11.4341009 16.6856164,11.4980375 C16.5859048,11.6097582 16.408364,11.6404927 16.276844,11.5680312 C16.1654017,11.5108248 16.0932123,11.3878872 16.0979497,11.2633791 C16.0979497,10.1955263 16.0986265,9.12767355 16.0977241,8.05982076 C15.2946172,7.89538041 14.527605,7.55887218 13.865493,7.07833843 C13.1810474,6.58254964 12.607593,5.93600516 12.2042349,5.19568706 C11.8538908,5.99141685 11.3190125,6.70503863 10.6519375,7.26543701 C9.99411178,7.8184322 9.2101802,8.22269075 8.37594164,8.43581263 C7.9633342,8.54910373 7.53538651,8.58387625 7.10992033,8.60855352 C6.93756818,8.62762232 6.76499044,8.60698315 6.59286388,8.59756091 C6.28267512,8.57333232 5.97045604,8.55000109 5.66748622,8.47507192 C5.66658386,9.46395744 5.66906537,10.4532916 5.66635827,11.4421771 C5.66974214,11.612899 5.52288187,11.7685901 5.35143208,11.7755446 C5.21043719,11.7878833 5.06876553,11.7003911 5.01620263,11.5698259 C4.98146149,11.4939994 4.99274109,11.408975 4.99138753,11.3284374 C4.99206431,10.6942315 4.99161313,10.0598013 4.99161313,9.4255955 C4.62705674,9.56042313 4.33130586,9.87606785 4.24016677,10.2545274 C4.12601731,10.646223 4.25843971,11.0834594 4.53343614,11.3784649 C4.64036666,11.4827825 4.66608413,11.6577668 4.58870613,11.7863129 C4.49125047,11.9700464 4.21377252,12.0119977 4.06646106,11.8650558 C3.86839145,11.6674133 3.72311031,11.422211 3.62204518,11.1630997 C3.46164939,10.6908664 3.49413461,10.153575 3.72378709,9.70915977 C3.8336503,9.48908338 3.98975985,9.2921139 4.17609869,9.13103863 C4.27671264,9.0673264 4.35973043,8.97826389 4.46914247,8.92823633 C4.63269654,8.8436606 4.80369514,8.75145735 4.99183872,8.74405416 C4.99138753,8.58903604 4.99206431,8.43401792 4.99138753,8.27899979 C4.85197179,8.22044736 4.68774094,8.19195633 4.58780377,8.06879432 C4.51538879,7.99790325 4.47252634,7.90300793 4.46237471,7.80295282 C4.40733031,7.43324244 4.36537023,7.06016699 4.3689797,6.68596983 C4.37529627,6.58120361 4.37597304,6.47643738 4.37552186,6.37167115 C4.43823639,4.85940317 5.03334761,3.37181246 6.04354779,2.23845274 C6.9204232,1.23947198 8.1092921,0.515754946 9.40396357,0.197193822 Z" id="Shape" fill="#443C77"></path>
                                    <path d="M8.78877467,10.3981043 C8.89750993,10.3781381 9.0114338,10.3994503 9.11520604,10.4337742 C9.3010937,10.5257531 9.42877867,10.7209278 9.44592365,10.9259735 C9.44569806,11.0551927 9.41930381,11.1942827 9.32681117,11.2914215 C9.23860476,11.39372 9.11543163,11.4675274 8.9809789,11.4892883 C8.7549359,11.5296693 8.50971759,11.4150321 8.40030555,11.2131272 C8.2390074,10.944145 8.37255776,10.5445975 8.67124133,10.4366906 C8.70936635,10.4209868 8.74839374,10.4073022 8.78877467,10.3981043 Z" id="Shape" fill="#443C77"></path>
                                    <path d="M12.6450413,10.4663033 C12.822582,10.4117889 13.0213284,10.4685467 13.1616465,10.5838568 C13.2620349,10.6807712 13.3272309,10.8138041 13.3475342,10.9510995 C13.3658071,11.2232225 13.1679631,11.5146386 12.8841686,11.5449243 C12.6888061,11.5922598 12.4938948,11.4939994 12.3524487,11.3663506 C12.2865759,11.2992733 12.2637911,11.2052754 12.2425855,11.1171102 C12.2082955,10.9450423 12.2461949,10.7462781 12.3797453,10.6237891 C12.4537394,10.5511034 12.5414946,10.4880641 12.6450413,10.4663033 Z" id="Shape" fill="#443C77"></path>
                                    <path d="M16.101108,12.2044805 C16.1044919,12.0434052 16.2412005,11.8998283 16.4022731,11.886368 C16.5392073,11.8693183 16.6804278,11.9462665 16.7408864,12.0692041 C16.7817185,12.144582 16.7776579,12.2327471 16.7763043,12.3157525 C16.7602873,13.1182125 16.5901911,13.9211211 16.2454868,14.6488762 C15.6621063,15.9302996 14.5948314,16.9869354 13.2994832,17.5538396 C13.122168,17.6343772 12.9394386,17.7021276 12.756258,17.7678588 C12.7569348,18.5976881 12.7549045,17.0127344 12.756258,17.8425637 C12.7652817,17.9578738 12.7249008,17.6958461 12.6303778,17.7678588 C12.5570605,17.7001085 12.1485137,18.1611248 12.1530255,18.0628644 C12.1539279,17.284633 12.0803849,18.7237665 12.0806105,17.9455352 C11.6912391,18.018894 11.294423,18.0485067 10.8989606,18.0628644 C10.588095,18.0509744 10.2765527,18.0298866 9.96816872,17.9861405 C9.96794312,18.7960036 10.0653988,17.2527769 10.0656244,18.0628644 C10.0681059,18.1662846 10.0505097,17.9989278 9.96816872,18.0628644 C9.87319456,18.1386909 9.40396357,17.8919182 9.29229562,17.8425637 C9.16776893,17.7905171 9.28688141,18.0799141 9.29229562,17.9455352 C9.29229562,17.0881122 9.29252121,18.6997623 9.29229562,17.8425637 C8.50091951,17.6141867 7.75578972,17.2258562 7.12503499,16.6977627 C6.50262715,16.1829051 5.9909849,15.5374823 5.63274508,14.8157843 C5.26909107,14.080626 5.04620635,13.2709872 5.02838459,12.4499071 C5.02026329,12.2668466 5.19058511,12.103528 5.37376567,12.1138476 C5.54318513,12.1133989 5.69613639,12.2592191 5.70222737,12.4279219 C5.72839602,12.8211879 5.78186128,13.2140051 5.88901739,13.5942594 C6.08550787,14.3336802 6.46359976,15.0219517 6.96373683,15.6014189 C7.75601531,16.5075233 8.86931095,17.1379154 10.0656244,17.3200786 C10.3566378,17.3588892 10.650584,17.3817717 10.9443045,17.3867072 C11.349693,17.3658437 11.7589166,17.3413907 12.1530255,17.2384192 C12.7779149,17.0834011 13.374154,16.8130728 13.9006854,16.4442598 C14.4951198,16.0256436 15.0008967,15.4820706 15.3728976,14.8590817 C15.846866,14.0599868 16.1008824,13.1323458 16.101108,12.2044805 Z" id="Shape" fill="#443C77"></path>
                                    <path d="M9.82469232,12.6174882 C9.96974786,12.5780046 10.1364602,12.6479983 10.2059425,12.7812556 C10.2528656,12.8806377 10.2711385,12.9923584 10.3322739,13.0856833 C10.4071704,13.2292602 10.5393672,13.3387375 10.6891602,13.398636 C10.8745967,13.467508 11.0882321,13.4058148 11.2283246,13.2725576 C11.3492419,13.1621829 11.4234616,13.0116515 11.4697079,12.8570821 C11.5193381,12.6912957 11.7126703,12.5887729 11.879157,12.6390247 C12.0474485,12.6809761 12.1622748,12.86628 12.1196379,13.0345341 C12.0160913,13.4318381 11.7519233,13.7995295 11.3747337,13.9792249 C11.0819155,14.1241477 10.7293155,14.1394028 10.4247666,14.0211762 C10.2066193,13.9278513 10.0060681,13.7849474 9.86123819,13.5962785 C9.73062053,13.4206212 9.63068335,13.2214083 9.57834605,13.0087351 C9.53954426,12.839808 9.65594964,12.6576449 9.82469232,12.6174882 Z" id="Shape" fill="#443C77"></path>
                                </g>
                            </g>
                        </g>
                        <g id="noun_882927_cc-copy-2" transform="translate(36.750000, 0.000000)">
                            <g id="Group">
                                <g>
                                    <ellipse id="Oval" fill="#FFCF49" cx="13.0225225" cy="21.875" rx="13.0225225" ry="13.125"></ellipse>
                                    <path d="M11.1404234,0.253534914 C12.4556238,-0.0703782925 13.8493566,-0.0706667281 15.1660166,0.246035588 C15.3003101,0.271706359 15.4261373,0.35073772 15.4889049,0.473322861 C15.5910847,0.653595126 15.5356156,0.900207585 15.366873,1.02163898 C15.2489282,1.11336151 15.0866083,1.1286486 14.946184,1.08451795 C13.2958339,0.683880867 11.5094386,0.858961291 9.97236207,1.57601225 C9.50788178,1.80358796 9.04719674,2.0476045 8.63993715,2.36747961 C6.75603312,3.72774202 5.57658599,5.97667458 5.50827148,8.277814 C5.50418429,8.57432582 5.49163076,8.87199139 5.520825,9.16792634 C5.5435965,9.3724272 5.56753578,9.57692806 5.59147505,9.78142891 C6.04661319,9.95074063 6.51839204,10.0828441 7.00214052,10.1411081 C7.32298517,10.1737014 7.64470565,10.2034102 7.96730196,10.2135055 C8.53717344,10.1826429 9.11259183,10.1474537 9.66407094,9.98996787 C10.7909684,9.68970638 11.8334946,9.08658749 12.647138,8.25993099 C13.3626887,7.53480383 13.908037,6.64296088 14.2084457,5.67381718 C14.2461062,5.53738713 14.3477022,5.41826321 14.4843312,5.37124821 C14.6195005,5.31875292 14.7643039,5.36490262 14.9012249,5.38422781 C15.0603335,5.40586048 15.1931673,5.52469596 15.2448411,5.67266344 C15.467885,6.20799996 15.7700454,6.70901264 16.1338055,7.162145 C16.3857518,7.49615346 16.6893718,7.78776187 17.002334,8.06523694 C17.9674955,8.88785535 19.1793482,9.43992113 20.4487136,9.58529269 C20.5649066,8.37847803 20.385946,7.14801166 19.9424855,6.01849775 C19.2873669,4.35335889 18.0328906,2.92012227 16.4400531,2.06923717 C16.2283949,1.97001532 16.1338055,1.69254025 16.2447436,1.48803939 C16.3451718,1.2760392 16.6333189,1.18402824 16.8400141,1.29997936 C18.7563237,2.31613807 20.2373473,4.08944029 20.9111503,6.1298339 C21.3078999,7.29886349 21.4389821,8.55327002 21.3087758,9.77883299 C21.2997256,9.87747798 21.246884,9.96689302 21.2480518,10.0672686 C21.2474679,10.2435028 21.1207649,10.4070458 20.9523141,10.4609832 C20.8638556,10.4921343 20.7689743,10.4808853 20.6778883,10.4756935 C20.6781803,10.6201997 20.6764286,10.764706 20.679348,10.9095006 C20.8761172,10.9668993 21.0714266,11.0306436 21.2483437,11.1356342 C21.4381062,11.2005322 21.5627656,11.362633 21.7204145,11.4765651 C21.9090093,11.620206 22.0555643,11.8088429 22.1676702,12.0153628 C22.2716017,12.1595806 22.3072186,12.3355264 22.3822478,12.4938775 C22.6149259,13.1852577 22.5004845,13.9804747 22.082423,14.5807093 C21.945794,14.7658849 21.6547275,14.8048238 21.4731393,14.6617597 C21.2900915,14.5325405 21.2445484,14.2608342 21.3703756,14.0773891 C21.6109361,13.717133 21.6906364,13.2521748 21.5700642,12.8362506 C21.4985383,12.6268464 21.4173783,12.4139809 21.271991,12.2429385 C21.095074,12.0742037 20.9009323,11.9198906 20.6775964,11.8151885 C20.6778883,12.7027049 20.6778883,13.5905098 20.6775964,14.4783146 C20.6799319,14.5893623 20.6405197,14.7009869 20.5637389,14.7831911 C20.4347003,14.926832 20.2049417,14.9663477 20.0347393,14.873183 C19.8905198,14.7996319 19.7970982,14.6415692 19.803229,14.4814874 C19.803229,13.1085338 19.8041049,11.7355803 19.8029371,10.3626267 C18.7636223,10.1512034 17.7710183,9.71854995 16.9141675,9.10072084 C16.0284143,8.46327811 15.2862969,7.63200664 14.7643039,6.68016907 C14.3109174,7.70325024 13.6187221,8.62076396 12.7554486,9.34127615 C11.9041447,10.05227 10.889645,10.572031 9.81004212,10.8460448 C9.27607955,10.9917048 8.72226489,11.0364123 8.17166161,11.0681402 C7.94861765,11.0926573 7.72528174,11.0661212 7.50252972,11.0540069 C7.10110898,11.0228558 6.69706076,10.9928585 6.30498217,10.896521 C6.3038144,12.1679453 6.30702577,13.4399464 6.30352246,14.7113706 C6.3079016,14.9308701 6.11784712,15.1310444 5.89597093,15.139986 C5.71350696,15.1558499 5.53016716,15.04336 5.46214459,14.8754905 C5.41718546,14.7779992 5.43178258,14.6686821 5.43003093,14.5651338 C5.43090675,13.7497262 5.43032287,12.9340303 5.43032287,12.1186228 C4.95854402,12.2919726 4.57580759,12.6978015 4.45786288,13.1843924 C4.31014004,13.688001 4.48151021,14.2501621 4.83738794,14.6294549 C4.97576862,14.7635775 5.00905005,14.9885573 4.90891382,15.1538309 C4.78279472,15.3900596 4.42370562,15.4439971 4.23306726,15.2550718 C3.97674187,15.00096 3.78873099,14.6856998 3.65794082,14.3525567 C3.4503698,13.7453997 3.4924095,13.0545964 3.78960682,12.4832054 C3.93178275,12.2002501 4.13380686,11.9470036 4.37495125,11.7399068 C4.50515754,11.6579911 4.61259233,11.5434821 4.75418437,11.479161 C4.96584258,11.3704208 5.18713489,11.2518737 5.43061481,11.2423554 C5.43003093,11.0430463 5.43090675,10.8437373 5.43003093,10.6444283 C5.24961055,10.5691466 5.03707651,10.5325153 4.90774605,10.3741641 C4.81403255,10.2830185 4.7585635,10.1610102 4.7454261,10.0323679 C4.67419216,9.557026 4.61989088,9.07735755 4.62456196,8.59624693 C4.63273635,8.46154749 4.63361218,8.32684806 4.63302829,8.19214862 C4.71418827,6.24780407 5.48433221,4.33518744 6.79165008,2.87801067 C7.92643003,1.59360683 9.46496625,0.663113502 11.1404234,0.253534914 Z" id="Shape" fill="#443C77"></path>
                                    <path d="M10.3442966,13.3689912 C10.4850129,13.3433204 10.6324437,13.3707218 10.7667372,13.4148525 C11.0072977,13.5331111 11.1725371,13.7840501 11.1947247,14.0476802 C11.1944328,14.2138192 11.1602755,14.3926492 11.0405792,14.5175419 C10.9264297,14.6490685 10.7670292,14.7439638 10.5930315,14.7719421 C10.3005053,14.8238605 9.98316394,14.6764699 9.84157189,14.4168778 C9.63283311,14.0710435 9.80566298,13.5573397 10.1921947,13.4186021 C10.2415329,13.3984117 10.292039,13.3808171 10.3442966,13.3689912 Z" id="Shape" fill="#443C77"></path>
                                    <path d="M15.3347593,13.4566756 C15.5645179,13.3865858 15.8217191,13.45956 16.0033073,13.6078159 C16.1332216,13.7324201 16.217593,13.9034624 16.2438678,14.079985 C16.2675151,14.4298574 16.0114817,14.8045353 15.6442182,14.8434741 C15.3913961,14.904334 15.1391579,14.7779992 14.9561101,14.6138794 C14.8708629,14.5276371 14.8413767,14.4067826 14.8139341,14.2934274 C14.7695589,14.0721973 14.8186052,13.8166433 14.9914351,13.6591575 C15.0871922,13.5657043 15.2007578,13.4846539 15.3347593,13.4566756 Z" id="Shape" fill="#443C77"></path>
                                    <path d="M19.8073162,15.6914749 C19.8116954,15.4843781 19.9886124,15.2997793 20.1970593,15.2824732 C20.3742683,15.260552 20.5570242,15.3594855 20.6352647,15.5175482 C20.6881063,15.6144626 20.6828513,15.7278178 20.6810997,15.8345389 C20.6603718,16.8662732 20.4402472,17.8985843 19.9941593,18.8342694 C19.2391964,20.4818137 17.8580171,21.8403455 16.1816841,22.5692223 C15.9522174,22.6727707 15.7157441,22.7598783 15.4786869,22.8443899 C15.4795627,23.9113133 15.4769352,21.8735156 15.4786869,22.940439 C15.4903646,23.0886949 15.4381069,22.7518021 15.315783,22.8443899 C15.2209018,22.7572824 14.6921942,23.3500176 14.698033,23.2236828 C14.6992008,22.2230996 14.6040276,24.0734141 14.6043195,23.0728309 C14.100427,23.1671494 13.5869004,23.2052229 13.0751254,23.2236828 C12.6728289,23.2083957 12.2696565,23.1812827 11.8705713,23.1250378 C11.8702793,24.1662904 11.9963984,22.1821417 11.9966904,23.2236828 C11.9999017,23.3566516 11.9771302,23.1414786 11.8705713,23.2236828 C11.7476635,23.321174 11.1404234,23.0038948 10.995912,22.940439 C10.8347598,22.8735219 10.9889054,23.2456039 10.995912,23.0728309 C10.995912,21.97043 10.9962039,24.0425515 10.995912,22.940439 C9.97177819,22.6468115 9.00749258,22.1475295 8.19122175,21.468552 C7.38575278,20.8065922 6.72362751,19.9767629 6.26002305,19.0488655 C5.78941197,18.103662 5.50097292,17.0626978 5.47790947,16.0070234 C5.46739955,15.77166 5.68781603,15.5616788 5.92487322,15.5749469 C6.14412193,15.57437 6.34205885,15.7618532 6.3499413,15.9787568 C6.38380661,16.4843844 6.45299695,16.9894352 6.59166957,17.4783336 C6.84595136,18.4290174 7.33524675,19.3139379 7.98248296,20.0589671 C9.00778452,21.2239586 10.4485201,22.0344627 11.9966904,22.2686724 C12.373296,22.3185718 12.7536969,22.3479922 13.1338059,22.3543378 C13.6584263,22.3275133 14.1880097,22.2960738 14.698033,22.1636819 C15.5067133,21.9643728 16.278317,21.6168079 16.9597105,21.1426197 C17.7289786,20.6043989 18.3835133,19.9055193 18.8649263,19.1045336 C19.4782972,18.0771259 19.8070243,16.8844446 19.8073162,15.6914749 Z" id="Shape" fill="#443C77"></path>
                                    <path d="M11.6848959,16.2224849 C11.8726149,16.1717202 12.0883603,16.2617121 12.1782785,16.4330429 C12.2390025,16.5608198 12.2626499,16.7044608 12.3417662,16.82445 C12.4386911,17.0090488 12.6097693,17.1498054 12.8036191,17.2268177 C13.0435957,17.3153674 13.3200651,17.2360476 13.5013613,17.0647169 C13.6578424,16.9228066 13.7538914,16.7292662 13.8137396,16.5305341 C13.8779669,16.3173802 14.1281615,16.1855651 14.343615,16.2501747 C14.561404,16.3041121 14.7100027,16.54236 14.6548255,16.7586867 C14.520824,17.2695062 14.1789595,17.7422522 13.6908319,17.9732891 C13.3118907,18.1596185 12.8555848,18.1792321 12.4614626,18.0272266 C12.1791544,17.9072373 11.9196176,17.7235038 11.7321906,17.4809295 C11.563156,17.2550844 11.4338255,16.9989536 11.3660949,16.7255166 C11.3158808,16.5083246 11.4665231,16.2741148 11.6848959,16.2224849 Z" id="Shape" fill="#443C77"></path>
                                </g>
                            </g>
                        </g>
                    </g>
                </g>
            </g>
        </g>
    </g>
</svg>